<?xml version="1.0" standalone="no"?>
<!DOCTYPE svg PUBLIC "-//W3C//DTD SVG 20010904//EN"
 "http://www.w3.org/TR/2001/REC-SVG-20010904/DTD/svg10.dtd">
<svg version="1.0" xmlns="http://www.w3.org/2000/svg"
 width="400.000000pt" height="400.000000pt" viewBox="0 0 400.000000 400.000000"
 preserveAspectRatio="xMidYMid meet">
<metadata>
Created by potrace 1.11, written by Peter Selinger 2001-2013
</metadata>
<g transform="translate(0.000000,400.000000) scale(0.100000,-0.100000)"
fill="#000000" stroke="none">
<path d="M265 1738 l-27 -32 4 -426 c5 -539 -2 -520 179 -520 85 0 97 3 173
38 45 21 142 75 216 119 74 44 198 114 275 157 281 155 300 184 195 299 -55
60 -152 112 -495 267 -279 126 -291 130 -398 130 -95 0 -95 0 -122 -32z"/>
<path d="M1708 1743 c-36 -42 -38 -61 -45 -440 -6 -374 -5 -378 15 -404 39
-48 89 -43 118 13 25 47 38 732 16 791 -21 56 -73 76 -104 40z"/>
<path d="M3015 1733 c-80 -29 -95 -61 -95 -197 0 -61 5 -212 10 -336 l10 -225
33 -64 c58 -115 76 -120 461 -115 257 4 270 5 309 26 82 46 91 93 102 518 6
243 6 245 -17 285 -42 73 -75 82 -373 99 -143 9 -289 18 -325 21 -47 4 -79 0
-115 -12z"/>
<path d="M2391 1684 c-30 -38 -32 -78 -29 -432 l3 -324 28 -24 c15 -13 36 -24
46 -24 26 0 59 36 70 77 15 53 15 660 0 702 -20 56 -83 70 -118 25z"/>
</g>
</svg>
